HIERARCHY
ROOT Hips
{
    OFFSET   0.000000   0.000000   0.000000
    CHANNELS 6 Xposition Yposition Zposition Zrotation Xrotation Yrotation
    JOINT Chest
    {
        OFFSET   0.000000   8.007230   0.000000
        CHANNELS 3 Zrotation Xrotation Yrotation
        JOINT Chest2
        {
            OFFSET   0.000000  22.077100   0.000000
            CHANNELS 3 Zrotation Xrotation Yrotation
            JOINT Neck
            {
                OFFSET   0.000000  23.254800  -0.000021
                CHANNELS 3 Zrotation Xrotation Yrotation
                JOINT Head
                {
                    OFFSET   0.000000  14.370000   1.956610
                    CHANNELS 3 Zrotation Xrotation Yrotation
                    End Site
                    {
                        OFFSET   0.000000  19.566000   0.000000
                    }
                }
            }
            JOINT LeftCollar
            {
                OFFSET   3.911900  19.017000  -0.467063
                CHANNELS 3 Zrotation Xrotation Yrotation
                JOINT LeftShoulder
                {
                    OFFSET  10.383700   0.000000   0.000000
                    CHANNELS 3 Zrotation Xrotation Yrotation
                    JOINT LeftElbow
                    {
                        OFFSET  26.662100   0.001529   0.000325
                        CHANNELS 3 Zrotation Xrotation Yrotation
                        JOINT LeftWrist
                        {
                            OFFSET  28.869000  -0.000011  -0.000096
                            CHANNELS 3 Zrotation Xrotation Yrotation
                            JOINT LeftFinger0
                            {
                                OFFSET   2.044650  -2.323460   3.252850
                                CHANNELS 3 Zrotation Xrotation Yrotation
                                JOINT LeftFinger01
                                {
                                    OFFSET   3.088130   0.000000   0.000000
                                    CHANNELS 3 Zrotation Xrotation Yrotation
                                    JOINT LeftFinger02
                                    {
                                        OFFSET   2.639460   0.000000   0.000000
                                        CHANNELS 3 Zrotation Xrotation Yrotation
                                        End Site
                                        {
                                            OFFSET   2.582190   0.000000   0.000000
                                        }
                                    }
                                }
                            }
                            JOINT LeftFinger1
                            {
                                OFFSET   8.364480   0.000000   3.252850
                                CHANNELS 3 Zrotation Xrotation Yrotation
                                JOINT LeftFinger11
                                {
                                    OFFSET   4.646930   0.000000   0.000000
                                    CHANNELS 3 Zrotation Xrotation Yrotation
                                    JOINT LeftFinger12
                                    {
                                        OFFSET   2.323460   0.000000   0.000000
                                        CHANNELS 3 Zrotation Xrotation Yrotation
                                        End Site
                                        {
                                            OFFSET   2.273050   0.000000   0.000000
                                        }
                                    }
                                }
                            }
                            JOINT LeftFinger2
                            {
                                OFFSET   8.364480   0.000016   1.078090
                                CHANNELS 3 Zrotation Xrotation Yrotation
                                JOINT LeftFinger21
                                {
                                    OFFSET   5.111620   0.000000   0.000000
                                    CHANNELS 3 Zrotation Xrotation Yrotation
                                    JOINT LeftFinger22
                                    {
                                        OFFSET   2.788160   0.000017   0.000000
                                        CHANNELS 3 Zrotation Xrotation Yrotation
                                        End Site
                                        {
                                            OFFSET   2.727660   0.000000   0.000000
                                        }
                                    }
                                }
                            }
                            JOINT LeftFinger3
                            {
                                OFFSET   7.899780   0.000015  -1.078090
                                CHANNELS 3 Zrotation Xrotation Yrotation
                                JOINT LeftFinger31
                                {
                                    OFFSET   4.646920   0.000000   0.000000
                                    CHANNELS 3 Zrotation Xrotation Yrotation
                                    JOINT LeftFinger32
                                    {
                                        OFFSET   2.323470   0.000000   0.000000
                                        CHANNELS 3 Zrotation Xrotation Yrotation
                                        End Site
                                        {
                                            OFFSET   2.273050   0.000000   0.000000
                                        }
                                    }
                                }
                            }
                            JOINT LeftFinger4
                            {
                                OFFSET   7.435090   0.000000  -3.252850
                                CHANNELS 3 Zrotation Xrotation Yrotation
                                JOINT LeftFinger41
                                {
                                    OFFSET   3.717550   0.000000   0.000000
                                    CHANNELS 3 Zrotation Xrotation Yrotation
                                    JOINT LeftFinger42
                                    {
                                        OFFSET   1.858760   0.000000   0.000000
                                        CHANNELS 3 Zrotation Xrotation Yrotation
                                        End Site
                                        {
                                            OFFSET   1.818440   0.000000   0.000000
                                        }
                                    }
                                }
                            }
                        }
                    }
                }
            }
            JOINT RightCollar
            {
                OFFSET  -3.911900  19.017000  -0.467062
                CHANNELS 3 Zrotation Xrotation Yrotation
                JOINT RightShoulder
                {
                    OFFSET -10.383700   0.000015   0.000000
                    CHANNELS 3 Zrotation Xrotation Yrotation
                    JOINT RightElbow
                    {
                        OFFSET -26.662100   0.001341   0.000385
                        CHANNELS 3 Zrotation Xrotation Yrotation
                        JOINT RightWrist
                        {
                            OFFSET -28.869000   0.000025  -0.000080
                            CHANNELS 3 Zrotation Xrotation Yrotation
                            JOINT RightFinger0
                            {
                                OFFSET  -2.044650  -2.323490   3.252850
                                CHANNELS 3 Zrotation Xrotation Yrotation
                                JOINT RightFinger01
                                {
                                    OFFSET  -3.088130   0.000000   0.000000
                                    CHANNELS 3 Zrotation Xrotation Yrotation
                                    JOINT RightFinger02
                                    {
                                        OFFSET  -2.639460   0.000000   0.000000
                                        CHANNELS 3 Zrotation Xrotation Yrotation
                                        End Site
                                        {
                                            OFFSET  -2.582190   0.000000   0.000000
                                        }
                                    }
                                }
                            }
                            JOINT RightFinger1
                            {
                                OFFSET  -8.364480   0.000000   3.252850
                                CHANNELS 3 Zrotation Xrotation Yrotation
                                JOINT RightFinger11
                                {
                                    OFFSET  -4.646930   0.000000   0.000000
                                    CHANNELS 3 Zrotation Xrotation Yrotation
                                    JOINT RightFinger12
                                    {
                                        OFFSET  -2.323470   0.000000   0.000000
                                        CHANNELS 3 Zrotation Xrotation Yrotation
                                        End Site
                                        {
                                            OFFSET  -2.273050   0.000000   0.000000
                                        }
                                    }
                                }
                            }
                            JOINT RightFinger2
                            {
                                OFFSET  -8.364480   0.000000   1.078090
                                CHANNELS 3 Zrotation Xrotation Yrotation
                                JOINT RightFinger21
                                {
                                    OFFSET  -5.111610   0.000000   0.000000
                                    CHANNELS 3 Zrotation Xrotation Yrotation
                                    JOINT RightFinger22
                                    {
                                        OFFSET  -2.788160   0.000000   0.000000
                                        CHANNELS 3 Zrotation Xrotation Yrotation
                                        End Site
                                        {
                                            OFFSET  -2.727660   0.000000   0.000000
                                        }
                                    }
                                }
                            }
                            JOINT RightFinger3
                            {
                                OFFSET  -7.899780   0.000000  -1.078090
                                CHANNELS 3 Zrotation Xrotation Yrotation
                                JOINT RightFinger31
                                {
                                    OFFSET  -4.646920   0.000000   0.000000
                                    CHANNELS 3 Zrotation Xrotation Yrotation
                                    JOINT RightFinger32
                                    {
                                        OFFSET  -2.323470   0.000000   0.000000
                                        CHANNELS 3 Zrotation Xrotation Yrotation
                                        End Site
                                        {
                                            OFFSET  -2.273050   0.000000   0.000000
                                        }
                                    }
                                }
                            }
                            JOINT RightFinger4
                            {
                                OFFSET  -7.435090   0.000000  -3.252850
                                CHANNELS 3 Zrotation Xrotation Yrotation
                                JOINT RightFinger41
                                {
                                    OFFSET  -3.717550   0.000000   0.000000
                                    CHANNELS 3 Zrotation Xrotation Yrotation
                                    JOINT RightFinger42
                                    {
                                        OFFSET  -1.858770   0.000000   0.000000
                                        CHANNELS 3 Zrotation Xrotation Yrotation
                                        End Site
                                        {
                                            OFFSET  -1.818440   0.000000   0.000000
                                        }
                                    }
                                }
                            }
                        }
                    }
                }
            }
        }
    }
    JOINT LeftHip
    {
        OFFSET   9.783010   0.000000   0.000000
        CHANNELS 3 Zrotation Xrotation Yrotation
        JOINT LeftKnee
        {
            OFFSET   0.000070 -41.789100   0.000028
            CHANNELS 3 Zrotation Xrotation Yrotation
            JOINT LeftAnkle
            {
                OFFSET   0.000087 -41.133200  -0.000100
                CHANNELS 3 Zrotation Xrotation Yrotation
                JOINT LeftToe
                {
                    OFFSET   0.000000  -6.358960  14.674500
                    CHANNELS 3 Zrotation Xrotation Yrotation
                    End Site
                    {
                        OFFSET   0.000000   0.000000   3.913200
                    }
                }
            }
        }
    }
    JOINT RightHip
    {
        OFFSET  -9.783020   0.000000   0.000000
        CHANNELS 3 Zrotation Xrotation Yrotation
        JOINT RightKnee
        {
            OFFSET   0.000044 -41.789100  -0.000870
            CHANNELS 3 Zrotation Xrotation Yrotation
            JOINT RightAnkle
            {
                OFFSET  -0.000090 -41.133200  -0.000245
                CHANNELS 3 Zrotation Xrotation Yrotation
                JOINT RightToe
                {
                    OFFSET   0.000000  -6.358960  14.674500
                    CHANNELS 3 Zrotation Xrotation Yrotation
                    End Site
                    {
                        OFFSET   0.000000   0.000000   3.913200
                    }
                }
            }
        }
    }
}
MOTION
Frames: 4
Frame Time:   0.016667
  0.547382  89.522300   1.138060  -0.961539  -1.366790   1.416080   1.193470   0.271744  -0.161055   2.387730   0.540076  -0.327735  -0.352061   1.285480   0.001332  -0.582101   2.605920   3.811060  -1.499340   4.634210   9.338590 -82.094400   6.901170   5.550900  -0.435107   3.868930 -14.329600  10.014200  -7.100690  -1.966160  40.229400  32.997700 -48.014200 -31.539300  -0.000000   0.000085 -10.769600   0.002603   0.000000 -24.174200  -0.607332   1.342850 -19.784800  -0.001055   0.000312 -13.849400   0.000409  -0.000170 -26.991500  -3.519620   6.872710 -27.839100  -0.003352  -0.001540 -18.540900   0.000950   0.000366 -22.057200  -3.650090   8.930860 -22.342300  -0.001427   0.000851 -14.880000   0.000647  -0.000841 -23.634100  -3.899930   8.826670 -35.903400  -0.001891  -0.000376 -23.911600   0.000973   0.000404   5.522030   3.312820   6.037530  72.201900  -3.552070  -7.421810   4.186530  -5.356350  11.217500 -16.966400  -1.109710   4.870130 -37.461200  30.164700  62.692000  31.442600  -0.000157  -0.004908  10.721000   0.004213  -0.006687  28.314500   1.215960   2.255540  23.186000   0.000000  -0.000450  16.220200   0.009473  -0.000706  27.892500   0.083584   0.157845  31.369700   0.006919  -0.015205  20.892200   0.011430  -0.011533  27.986600  -1.589390  -2.988980  32.123500   0.000349  -0.001200  21.394200   0.005338  -0.000830  31.590600  -1.774840  -2.882790  47.453300   0.000920  -0.001548  31.604900  -0.000657  -0.004583   3.237390   2.599780  -0.622591   0.159912   0.809137  12.119900  -2.167400  -2.423340   1.739310  -0.000000   0.000000   0.000000  -0.785970   1.735710  -2.173680  -0.493033   4.181900 -15.565000   0.540804  -4.035700  -6.379020  -0.000000   0.000000   0.000000
  0.547435  89.522200   1.138060  -0.961413  -1.386140   1.401530   1.190140   0.294046  -0.152187   2.381110   0.584866  -0.310452  -0.352089   1.292480   0.001362  -0.582107   2.620090   3.815560  -1.498810   4.604740   9.337750 -82.089200   6.926150   5.529460  -0.434192   3.872420 -14.329900  10.012300  -7.094660  -2.002690  40.225400  32.994200 -48.076000 -31.550700  -0.000020   0.000054 -10.775300   0.002586   0.000000 -24.234300  -0.607334   1.342790 -19.833900  -0.001043   0.000318 -13.883700   0.000421  -0.000157 -27.015700  -3.541670   6.905590 -27.958800  -0.003328  -0.001505 -18.620500   0.000967   0.000383 -22.102700  -3.659940   8.930090 -22.388500  -0.001411   0.000857 -14.910700   0.000658  -0.000825 -23.643500  -3.899930   8.826670 -35.917300  -0.001879  -0.000353 -23.920900   0.000982   0.000412   5.527930   3.255280   6.036660  72.226100  -3.492410  -7.341360   4.161630  -5.353100  11.197000 -16.970400  -1.060910   4.881370 -37.485100  30.199800  62.712700  31.430300  -0.000148  -0.004905  10.721200   0.004218  -0.006694  28.307200   1.222760   2.268840  23.180300   0.000000  -0.000449  16.220200   0.009471  -0.000704  27.892600   0.089129   0.168340  31.356000   0.006918  -0.015206  20.883100   0.011430  -0.011533  27.987400  -1.580580  -2.972430  32.123500   0.000347  -0.001196  21.394200   0.005334  -0.000828  31.591500  -1.764940  -2.866870  47.453500   0.000919  -0.001538  31.604900  -0.000659  -0.004581   3.237910   2.621730  -0.625491   0.159904   0.808064  12.129100  -2.166960  -2.423900   1.747200  -0.000000   0.000000   0.000000  -0.785393   1.757370  -2.167690  -0.491448   4.182990 -15.565100   0.541477  -4.036030  -6.366910   0.000000   0.000000   0.000000
  0.547488  89.522000   1.138030  -0.961138  -1.424520   1.374850   1.184540   0.340048  -0.138526   2.369960   0.677157  -0.284063  -0.352126   1.299470   0.001392  -0.582464   2.634230   3.827650  -1.500900   4.539040   9.336440 -82.084400   6.989430   5.482130  -0.432211   3.880060 -14.330400  10.024200  -7.088630  -2.039230  40.211100  32.978900 -48.161000 -31.566600  -0.000078   0.000000 -10.783300   0.002541   0.000000 -24.332900  -0.607337   1.342330 -19.914600  -0.001015   0.000330 -13.940200   0.000452  -0.000124 -27.055900  -3.563720   6.938470 -28.146300  -0.003270  -0.001431 -18.745400   0.001010   0.000424 -22.176000  -3.669850   8.924080 -22.462500  -0.001373   0.000875 -14.960000   0.000691  -0.000786 -23.652900  -3.899930   8.826670 -35.931100  -0.001850  -0.000304 -23.930100   0.001007   0.000434   5.539120   3.147690   6.035500  72.271800  -3.394680  -7.167860   4.099990  -5.330140  11.147100 -16.978800  -0.959363   4.897490 -37.519100  30.253100  62.754100  31.417900  -0.000129  -0.004902  10.721400   0.004223  -0.006703  28.296200   1.235190   2.292910  23.171700   0.000000  -0.000447  16.220200   0.009468  -0.000701  27.892700   0.097747   0.184649  31.336700   0.006915  -0.015207  20.870300   0.011430  -0.011533  27.988600  -1.567550  -2.947820  32.123500   0.000340  -0.001187  21.394200   0.005321  -0.000821  31.593000  -1.750350  -2.843130  47.454800   0.000916  -0.001510  31.604900  -0.000663  -0.004577   3.238660   2.664160  -0.628401   0.159849   0.806981  12.141600  -2.166100  -2.426310   1.761820  -0.000000   0.000000  -0.000000  -0.784515   1.790870  -2.157210  -0.488032   4.190630 -15.565400   0.542848  -4.036560  -6.344680  -0.000000   0.000000   0.000000
  0.545503  89.521900   1.133570  -0.964511  -1.467890   1.348250   1.178720   0.394765  -0.128225   2.358380   0.786810  -0.264917  -0.352132   1.292140   0.001376  -0.582358   2.619310   3.843850  -1.504420   4.451770   9.336560 -82.091700   7.066570   5.429750  -0.423335   3.893190 -14.329900  10.072400  -7.099130  -2.039190  40.193400  32.950000 -48.202700 -31.570000  -0.000179  -0.000047 -10.785000   0.002469   0.000000 -24.387400  -0.593076   1.308170 -19.959000  -0.000972   0.000346 -13.971300   0.000502  -0.000068 -27.080200  -3.562700   6.928930 -28.251100  -0.003182  -0.001326 -18.815200   0.001077   0.000486 -22.218000  -3.663300   8.884270 -22.504100  -0.001319   0.000904 -14.987700   0.000744  -0.000726 -23.650300  -3.884000   8.793300 -35.923700  -0.001807  -0.000240 -23.925200   0.001047   0.000469   5.562290   3.035320   6.036240  72.327000  -3.328080  -6.949870   4.010590  -5.284050  11.067900 -16.989000  -0.825039   4.905770 -37.527600  30.287300  62.800500  31.420900  -0.000107  -0.004910  10.721500   0.004221  -0.006704  28.290200   1.248020   2.317270  23.167200   0.000000  -0.000442  16.218000   0.009467  -0.000696  27.892800   0.103103   0.194781  31.328100   0.006909  -0.015209  20.864400   0.011429  -0.011533  27.989200  -1.561200  -2.935570  32.136600   0.000330  -0.001172  21.403000   0.005302  -0.000809  31.597700  -1.743380  -2.831200  47.461700   0.000912  -0.001467  31.609100  -0.000668  -0.004571   3.238750   2.710020  -0.622968   0.159599   0.808489  12.144200  -2.165230  -2.431540   1.776930   0.000000   0.000000   0.000000  -0.783770   1.807830  -2.146870  -0.485505   4.218430 -15.565000   0.545738  -4.036830  -6.323280  -0.000000   0.000000   0.000000
